<!-- Generated by IcoMoon.io -->
<svg version="1.1" xmlns="http://www.w3.org/2000/svg" width="32" height="32" viewBox="0 0 32 32">
<title>trade</title>
<path d="M20 16v4h4.738l-5.371 5.371c-3.389 3.396-9.309 3.396-12.701 0l-2.83 2.824c2.451 2.454 5.715 3.805 9.184 3.805 3.471 0 6.727-1.352 9.175-3.805l5.805-5.8v5.605h4v-12h-12zM12 12h-4.738l5.371-5.371c3.389-3.396 9.309-3.396 12.701 0l2.83-2.824c-2.451-2.453-5.715-3.805-9.185-3.805s-6.727 1.352-9.175 3.805l-5.804 5.8v-5.605h-4v12h12v-4z"></path>
</svg>
