<?xml version="1.0" encoding="utf-8"?>
<!-- Generated by IcoMoon.io -->
<!DOCTYPE svg PUBLIC "-//W3C//DTD SVG 1.1//EN" "http://www.w3.org/Graphics/SVG/1.1/DTD/svg11.dtd">
<svg version="1.1" xmlns="http://www.w3.org/2000/svg" xmlns:xlink="http://www.w3.org/1999/xlink" width="512" height="512" viewBox="0 0 512 512">
<path fill="#444444" d="M0 256v256h512v-512h-512v256zM316.16 36.864c31.232 20.736 64 60.416 78.336 94.976 4.096 9.984 6.912 13.824 9.728 13.056 2.304-0.768 7.68-1.792 12.032-2.816l8.192-1.536-3.584-13.312c-1.792-7.168-2.816-13.568-2.304-14.080 1.28-1.28 65.792 19.712 68.608 22.272 1.536 1.536-19.2 20.48-46.080 41.984l-5.632 4.608-3.072-11.776c-2.816-11.52-3.328-11.776-11.008-10.24-17.152 3.584-16.384 1.792-12.288 23.808 5.888 33.28 1.28 85.504-11.264 124.672-5.888 17.92-21.76 55.040-23.808 55.040-0.768 0-25.6-15.616-55.296-34.304-29.44-18.944-54.016-34.048-54.528-33.792-0.256 0.512 21.76 43.776 49.408 96.512 27.392 52.48 49.92 96.512 49.92 97.536s-7.168 2.048-15.872 1.792h-16.128l-23.040-35.584c-67.072-103.68-84.736-130.56-86.016-130.56-1.024 0-15.36 37.376-31.744 83.2l-30.208 83.2h-16.128c-9.728 0-16.384-1.024-16.384-2.56s11.52-49.664 25.6-107.008l25.6-104.192-9.472-25.6-9.728-25.6-28.16-1.536c-15.616-0.768-31.488-2.56-35.84-3.584-10.24-2.816-32-13.568-32-16.128 0-3.84 19.2-20.48 29.44-25.6s28.16-9.472 50.176-12.032l11.776-1.536-3.584-10.752c-5.888-16.384-3.328-42.496 5.376-55.808 8.192-12.032 21.504-18.688 32.512-16.384 9.472 2.048 21.76 12.288 26.88 22.272l3.84 7.68 24.576-39.424c13.312-21.504 27.136-43.52 30.464-48.896l6.4-9.728 9.472 5.632c5.12 3.328 16.384 10.496 24.832 16.128z"></path>
<path fill="#444444" d="M277.76 56.32c-36.608 57.856-52.48 85.248-52.48 90.112-0.256 3.328-1.792 10.24-3.584 15.36-2.56 6.912-2.56 9.728-0.512 9.728 7.68-0.256 129.792-19.968 131.072-21.248 2.304-2.048-16.896-40.704-29.952-60.416-5.888-8.96-16.896-22.784-24.064-30.464l-13.312-14.336-7.168 11.264z"></path>
<path fill="#444444" d="M297.728 190.208l-51.968 10.496 1.792 25.856c0.768 14.080 2.304 28.16 3.072 31.488 2.048 7.424 110.848 78.592 113.152 73.984 8.704-15.872 10.752-91.904 3.584-129.28-4.352-22.784-4.608-23.552-11.264-23.296-3.584 0.256-29.952 5.12-58.368 10.752z"></path>
</svg>
