<?xml version="1.0" encoding="utf-8"?>
<!-- Generated by IcoMoon.io -->
<!DOCTYPE svg PUBLIC "-//W3C//DTD SVG 1.1//EN" "http://www.w3.org/Graphics/SVG/1.1/DTD/svg11.dtd">
<svg version="1.1" xmlns="http://www.w3.org/2000/svg" xmlns:xlink="http://www.w3.org/1999/xlink" width="512" height="512" viewBox="0 0 512 512">
<path fill="#444444" d="M0 256v256h512v-512h-512v256zM284.416 25.344l9.472 2.816-8.704 19.712c-4.608 10.752-9.984 20.48-11.776 21.248-1.792 1.024-12.032 2.56-22.528 3.328-65.792 4.608-134.144 55.296-159.744 118.528-8.448 20.48-14.336 50.688-14.336 72.704 0 11.264-1.024 17.92-2.816 17.92-1.536 0-12.544 4.608-24.32 9.984-11.776 5.632-22.016 9.472-22.528 8.448s-2.304-8.704-3.84-16.896c-11.776-64.256 15.36-140.288 69.888-195.072 32.512-32.512 64.768-51.968 103.936-62.464 15.616-4.096 24.832-4.864 48.64-4.096 16.128 0.512 33.536 2.304 38.656 3.84zM270.336 115.968c0 17.152 1.536 29.696 4.096 36.608l4.096 10.496-107.008 107.008-27.648 0.256c-15.104 0-32.512 1.024-38.656 2.304l-11.264 2.048 1.536-19.712c2.56-27.904 5.888-40.704 18.944-67.84 15.872-33.024 43.008-60.928 75.52-77.056 23.296-11.52 52.48-19.968 69.888-20.224l10.24-0.256 0.256 26.368zM347.392 164.352c7.424 7.424 13.568 14.592 13.568 15.872 0 3.584-10.496 14.336-14.080 14.336-1.536 0-8.96-6.4-16.64-14.080l-13.824-14.080 7.424-7.68c4.096-4.096 7.936-7.68 8.704-7.68s7.424 5.888 14.848 13.312zM317.44 195.84l21.76 21.76-119.040 119.040-22.272-22.528-22.528-22.272 58.88-58.88c32.256-32.256 59.392-58.88 60.16-58.88s11.264 9.728 23.040 21.76zM488.448 230.912c11.776 46.848 1.28 101.888-28.16 146.944-45.312 69.376-123.648 114.176-199.936 113.92-23.040-0.256-43.52-2.816-46.848-6.144-0.512-0.512 2.816-9.472 7.424-19.968 4.864-10.496 9.472-20.992 10.24-23.552 1.28-3.328 4.608-4.352 15.104-4.352 35.328 0 77.824-12.544 106.752-31.488 49.92-32.512 83.2-87.808 89.088-147.456l2.048-21.504 19.2-8.448c10.496-4.608 19.968-8.448 20.736-8.448 1.024-0.256 2.816 4.608 4.352 10.496zM362.24 239.616c8.192 2.56 22.016 4.096 38.144 4.096h25.088l-1.792 14.080c-2.816 23.552-8.448 41.984-19.712 64.768-8.448 17.664-14.848 26.112-32.512 43.52-33.024 33.024-69.888 49.664-114.432 51.712-16.384 0.768-17.664 0.512-16.64-4.352 0.512-2.816 1.28-20.48 1.536-39.424l0.768-34.304 51.968-51.968c28.672-28.672 52.736-52.224 53.504-52.224s7.168 1.792 14.080 4.096zM185.344 327.424l15.104 15.104-151.552 151.552h-28.416v-32l74.752-74.752c41.216-41.216 75.008-75.008 75.008-75.008s6.912 6.912 15.104 15.104z"></path>
</svg>
