<?xml version="1.0" encoding="utf-8"?>
<!-- Generated by IcoMoon.io -->
<!DOCTYPE svg PUBLIC "-//W3C//DTD SVG 1.1//EN" "http://www.w3.org/Graphics/SVG/1.1/DTD/svg11.dtd">
<svg version="1.1" xmlns="http://www.w3.org/2000/svg" xmlns:xlink="http://www.w3.org/1999/xlink" width="512" height="512" viewBox="0 0 512 512">
<path fill="#444444" d="M0 256v256h512v-512h-512v256zM95.232 58.112c20.992 20.736 37.888 38.656 37.888 39.424 0 1.024-4.352 4.608-9.728 8.192-5.376 3.328-14.336 12.288-19.712 19.456l-9.984 13.056-36.608-36.352-36.608-36.608v-44.8h37.12l37.632 37.632zM194.56 104.96c4.352 2.816 5.12 2.304-15.36 11.52-29.696 13.568-60.928 48.64-72.96 81.92-1.792 4.608-2.304 4.096-5.632-3.584-4.352-10.752-1.024-29.44 8.192-45.056 8.448-14.592 29.696-33.792 45.568-40.96 13.568-6.4 33.024-8.448 40.192-3.84zM245.76 131.328c4.352 3.072 5.12 4.352 2.304 5.376-2.048 0.512-8.704 2.304-15.104 4.096-46.592 12.8-84.736 52.736-97.28 101.888-2.816 10.752-3.072 11.008-7.68 6.912-12.288-11.008-7.68-46.336 9.216-71.936 28.16-42.24 81.664-65.28 108.544-46.336zM314.624 158.208l16.64 4.352 5.376 18.176c8.448 27.648 20.224 46.080 46.080 71.936l23.552 23.296 1.536 18.944c1.024 10.24 3.328 24.576 5.632 31.744 4.864 16.64 19.456 38.912 30.976 47.104 4.864 3.584 11.264 11.52 14.080 17.92 7.424 16.128 35.84 102.912 34.304 104.704-2.048 2.048-52.736-14.080-89.088-28.416-29.696-11.776-33.28-13.824-37.632-22.272-14.848-28.672-60.16-52.992-103.936-55.808-20.48-1.536-20.736-1.536-23.808-9.472-10.24-27.648-37.632-48.128-75.008-56.32-9.728-2.304-13.056-16.128-11.776-50.176 1.024-25.344 6.144-45.312 14.592-58.88 3.584-5.12 13.312 0.256 29.952 16.64 14.336 14.080 20.224 27.648 23.040 53.248 1.792 14.848 1.792 14.848 9.728 14.080l7.936-0.768-0.512-16.896c-0.768-25.856-8.704-43.776-27.392-62.464-8.704-8.704-18.432-17.408-22.016-19.712l-6.4-4.096 6.912-7.424c10.752-11.264 34.56-24.576 52.992-29.44 21.504-5.376 52.992-5.632 74.24 0z"></path>
<path fill="#444444" d="M256.768 200.192c-4.608 1.28-8.448 2.56-8.448 3.072 0 4.864 12.032 33.28 17.92 42.24 7.68 12.032 27.136 32 38.144 39.424 5.888 4.096 6.4 5.632 6.4 28.416l0.256 23.808-9.216-1.024c-11.008-1.536-31.488 4.608-42.752 12.8l-7.936 5.888 11.776 14.848 7.424-5.376c15.104-10.752 33.28-12.032 49.664-3.328 3.584 1.792 13.824 9.728 23.040 17.408 18.176 15.616 45.056 29.184 66.048 33.536 19.456 4.096 20.224 3.84 21.504-6.144 1.024-8.192 0.256-9.216-5.376-10.24-32.768-6.4-50.688-14.336-69.376-31.232-20.224-18.176-30.72-39.936-26.88-56.576l1.536-7.168 15.36 5.12c16.896 5.376 20.224 4.096 20.224-7.936 0-4.608-2.304-6.4-13.312-9.728-32.256-9.216-63.488-35.584-76.032-63.232-3.84-8.96-8.192-18.432-9.472-21.504-2.048-4.608-3.328-5.12-10.496-3.072z"></path>
</svg>
