<?xml version="1.0" encoding="utf-8"?>
<!-- Generated by IcoMoon.io -->
<!DOCTYPE svg PUBLIC "-//W3C//DTD SVG 1.1//EN" "http://www.w3.org/Graphics/SVG/1.1/DTD/svg11.dtd">
<svg version="1.1" xmlns="http://www.w3.org/2000/svg" xmlns:xlink="http://www.w3.org/1999/xlink" width="512" height="512" viewBox="0 0 512 512">
<path fill="#444444" d="M0 256v256h512v-512h-512v256zM206.849 36.864c20.224 6.144 37.376 11.776 37.887 12.544 0.768 0.768-3.584 19.712-9.472 42.24l-11.008 41.216-19.712 19.968c-10.752 11.008-22.528 22.784-26.112 25.856l-6.4 6.144-37.887-25.601-6.144-60.928 17.92-36.352c9.728-19.968 19.2-36.352 20.992-36.352s19.712 5.12 39.936 11.264zM290.56 41.984c4.096 5.888 2.816 11.264-21.76 103.168-14.336 53.248-26.368 97.024-26.881 97.536-1.025 1.28-21.249-9.215-22.784-11.776-2.048-3.584 47.36-185.6 51.712-190.72 5.632-6.4 15.104-5.376 19.712 1.792zM345.601 58.88c2.816 2.816 5.12 6.912 5.12 9.472 0 3.328-56.064 63.232-57.856 61.44-0.256-0.256 2.303-11.776 6.144-25.6 6.144-23.552 7.168-25.6 19.968-37.632 14.848-14.080 18.944-15.361 26.624-7.68zM392.448 94.72c13.568 4.352 24.832 8.704 24.832 9.728s-2.816 23.296-6.144 49.664l-6.144 47.616-31.488 38.912c-17.409 21.504-34.048 41.728-36.864 45.312l-5.12 6.144-34.56-23.296c-18.688-12.8-34.56-23.553-34.816-23.808s4.096-17.92 9.728-38.912l10.24-38.4 39.937-40.448c22.016-22.016 41.216-40.192 42.752-40.192s13.824 3.584 27.649 7.68zM454.912 114.432l13.568 4.352v57.088c0 45.312-0.768 57.088-3.072 55.552-1.792-1.024-11.264-8.448-21.248-16.128-9.728-7.68-18.432-14.336-18.944-14.848-0.768-0.512 5.376-55.552 9.216-80.897 1.536-10.752 2.048-11.008 20.48-5.12zM206.849 197.376c-3.071 11.776-5.888 22.016-6.144 22.528-0.512 0.768-17.152-8.448-21.248-11.776-0.768-0.512 6.144-8.448 15.104-17.409s16.64-16.128 17.152-15.616c0.512 0.512-1.536 10.495-4.864 22.272zM441.087 236.544c10.752 8.192 19.712 15.616 19.712 16.64 0 1.792-82.432 61.184-88.064 63.232-3.841 1.536-25.344-11.264-24.065-14.336 3.072-7.424 67.84-83.712 69.888-82.432 1.536 1.024 11.776 8.448 22.528 16.895zM196.608 239.872c31.488 18.176 41.471 25.601 41.471 31.232 0 7.168-6.4 13.568-13.056 13.568-7.424 0-67.072-33.279-71.936-40.192-6.4-8.703 3.839-23.553 14.080-20.224 2.56 0.768 15.872 7.936 29.44 15.616zM177.664 283.136c34.816 19.968 39.168 24.065 35.84 33.791-4.352 12.288-14.336 10.752-46.081-7.424-32.512-18.432-39.424-24.063-39.424-32 0-6.912 9.472-14.336 15.872-12.288 2.56 0.768 17.664 8.704 33.791 17.92zM155.904 324.096c11.264 6.4 20.736 12.288 20.736 13.056 0 1.024-29.184 52.224-75.008 131.584l-13.824 24.063-29.952 0.768c-16.64 0.256-29.697-0.256-28.927-1.28 6.4-11.008 72.704-126.72 86.016-149.76 9.216-16.64 17.664-30.208 18.432-30.208 1.024 0 11.008 5.376 22.528 11.776z"></path>
</svg>
