<?xml version="1.0" encoding="utf-8"?>
<!DOCTYPE svg PUBLIC "-//W3C//DTD SVG 1.1//EN" "http://www.w3.org/Graphics/SVG/1.1/DTD/svg11.dtd">
<svg version="1.1" xmlns="http://www.w3.org/2000/svg" xmlns:xlink="http://www.w3.org/1999/xlink" width="512" height="512" viewBox="0 0 512 512">

<!-- WARRIOR -->
<g id="warrior">
<path d="M0 256v256h512v-512h-512v256zM206.849 36.864c20.224 6.144 37.376 11.776 37.887 12.544 0.768 0.768-3.584 19.712-9.472 42.24l-11.008 41.216-19.712 19.968c-10.752 11.008-22.528 22.784-26.112 25.856l-6.4 6.144-37.887-25.601-6.144-60.928 17.92-36.352c9.728-19.968 19.2-36.352 20.992-36.352s19.712 5.12 39.936 11.264zM290.56 41.984c4.096 5.888 2.816 11.264-21.76 103.168-14.336 53.248-26.368 97.024-26.881 97.536-1.025 1.28-21.249-9.215-22.784-11.776-2.048-3.584 47.36-185.6 51.712-190.72 5.632-6.4 15.104-5.376 19.712 1.792zM345.601 58.88c2.816 2.816 5.12 6.912 5.12 9.472 0 3.328-56.064 63.232-57.856 61.44-0.256-0.256 2.303-11.776 6.144-25.6 6.144-23.552 7.168-25.6 19.968-37.632 14.848-14.080 18.944-15.361 26.624-7.68zM392.448 94.72c13.568 4.352 24.832 8.704 24.832 9.728s-2.816 23.296-6.144 49.664l-6.144 47.616-31.488 38.912c-17.409 21.504-34.048 41.728-36.864 45.312l-5.12 6.144-34.56-23.296c-18.688-12.8-34.56-23.553-34.816-23.808s4.096-17.92 9.728-38.912l10.24-38.4 39.937-40.448c22.016-22.016 41.216-40.192 42.752-40.192s13.824 3.584 27.649 7.68zM454.912 114.432l13.568 4.352v57.088c0 45.312-0.768 57.088-3.072 55.552-1.792-1.024-11.264-8.448-21.248-16.128-9.728-7.68-18.432-14.336-18.944-14.848-0.768-0.512 5.376-55.552 9.216-80.897 1.536-10.752 2.048-11.008 20.48-5.12zM206.849 197.376c-3.071 11.776-5.888 22.016-6.144 22.528-0.512 0.768-17.152-8.448-21.248-11.776-0.768-0.512 6.144-8.448 15.104-17.409s16.64-16.128 17.152-15.616c0.512 0.512-1.536 10.495-4.864 22.272zM441.087 236.544c10.752 8.192 19.712 15.616 19.712 16.64 0 1.792-82.432 61.184-88.064 63.232-3.841 1.536-25.344-11.264-24.065-14.336 3.072-7.424 67.84-83.712 69.888-82.432 1.536 1.024 11.776 8.448 22.528 16.895zM196.608 239.872c31.488 18.176 41.471 25.601 41.471 31.232 0 7.168-6.4 13.568-13.056 13.568-7.424 0-67.072-33.279-71.936-40.192-6.4-8.703 3.839-23.553 14.080-20.224 2.56 0.768 15.872 7.936 29.44 15.616zM177.664 283.136c34.816 19.968 39.168 24.065 35.84 33.791-4.352 12.288-14.336 10.752-46.081-7.424-32.512-18.432-39.424-24.063-39.424-32 0-6.912 9.472-14.336 15.872-12.288 2.56 0.768 17.664 8.704 33.791 17.92zM155.904 324.096c11.264 6.4 20.736 12.288 20.736 13.056 0 1.024-29.184 52.224-75.008 131.584l-13.824 24.063-29.952 0.768c-16.64 0.256-29.697-0.256-28.927-1.28 6.4-11.008 72.704-126.72 86.016-149.76 9.216-16.64 17.664-30.208 18.432-30.208 1.024 0 11.008 5.376 22.528 11.776z"></path>
</g>

<!-- SPEARMAN -->
<g id="spearman">
<path d="M0 256v256h512v-512h-512v256zM95.232 58.112c20.992 20.736 37.888 38.656 37.888 39.424 0 1.024-4.352 4.608-9.728 8.192-5.376 3.328-14.336 12.288-19.712 19.456l-9.984 13.056-36.608-36.352-36.608-36.608v-44.8h37.12l37.632 37.632zM194.56 104.96c4.352 2.816 5.12 2.304-15.36 11.52-29.696 13.568-60.928 48.64-72.96 81.92-1.792 4.608-2.304 4.096-5.632-3.584-4.352-10.752-1.024-29.44 8.192-45.056 8.448-14.592 29.696-33.792 45.568-40.96 13.568-6.4 33.024-8.448 40.192-3.84zM245.76 131.328c4.352 3.072 5.12 4.352 2.304 5.376-2.048 0.512-8.704 2.304-15.104 4.096-46.592 12.8-84.736 52.736-97.28 101.888-2.816 10.752-3.072 11.008-7.68 6.912-12.288-11.008-7.68-46.336 9.216-71.936 28.16-42.24 81.664-65.28 108.544-46.336zM314.624 158.208l16.64 4.352 5.376 18.176c8.448 27.648 20.224 46.080 46.080 71.936l23.552 23.296 1.536 18.944c1.024 10.24 3.328 24.576 5.632 31.744 4.864 16.64 19.456 38.912 30.976 47.104 4.864 3.584 11.264 11.52 14.080 17.92 7.424 16.128 35.84 102.912 34.304 104.704-2.048 2.048-52.736-14.080-89.088-28.416-29.696-11.776-33.28-13.824-37.632-22.272-14.848-28.672-60.16-52.992-103.936-55.808-20.48-1.536-20.736-1.536-23.808-9.472-10.24-27.648-37.632-48.128-75.008-56.32-9.728-2.304-13.056-16.128-11.776-50.176 1.024-25.344 6.144-45.312 14.592-58.88 3.584-5.12 13.312 0.256 29.952 16.64 14.336 14.080 20.224 27.648 23.040 53.248 1.792 14.848 1.792 14.848 9.728 14.080l7.936-0.768-0.512-16.896c-0.768-25.856-8.704-43.776-27.392-62.464-8.704-8.704-18.432-17.408-22.016-19.712l-6.4-4.096 6.912-7.424c10.752-11.264 34.56-24.576 52.992-29.44 21.504-5.376 52.992-5.632 74.24 0z"></path>
<path d="M256.768 200.192c-4.608 1.28-8.448 2.56-8.448 3.072 0 4.864 12.032 33.28 17.92 42.24 7.68 12.032 27.136 32 38.144 39.424 5.888 4.096 6.4 5.632 6.4 28.416l0.256 23.808-9.216-1.024c-11.008-1.536-31.488 4.608-42.752 12.8l-7.936 5.888 11.776 14.848 7.424-5.376c15.104-10.752 33.28-12.032 49.664-3.328 3.584 1.792 13.824 9.728 23.040 17.408 18.176 15.616 45.056 29.184 66.048 33.536 19.456 4.096 20.224 3.84 21.504-6.144 1.024-8.192 0.256-9.216-5.376-10.24-32.768-6.4-50.688-14.336-69.376-31.232-20.224-18.176-30.72-39.936-26.88-56.576l1.536-7.168 15.36 5.12c16.896 5.376 20.224 4.096 20.224-7.936 0-4.608-2.304-6.4-13.312-9.728-32.256-9.216-63.488-35.584-76.032-63.232-3.84-8.96-8.192-18.432-9.472-21.504-2.048-4.608-3.328-5.12-10.496-3.072z"></path>
</g>

<!-- ARCHER -->
<g id="archer">
<path d="M0 256v256h512v-512h-512v256zM316.16 36.864c31.232 20.736 64 60.416 78.336 94.976 4.096 9.984 6.912 13.824 9.728 13.056 2.304-0.768 7.68-1.792 12.032-2.816l8.192-1.536-3.584-13.312c-1.792-7.168-2.816-13.568-2.304-14.080 1.28-1.28 65.792 19.712 68.608 22.272 1.536 1.536-19.2 20.48-46.080 41.984l-5.632 4.608-3.072-11.776c-2.816-11.52-3.328-11.776-11.008-10.24-17.152 3.584-16.384 1.792-12.288 23.808 5.888 33.28 1.28 85.504-11.264 124.672-5.888 17.92-21.76 55.040-23.808 55.040-0.768 0-25.6-15.616-55.296-34.304-29.44-18.944-54.016-34.048-54.528-33.792-0.256 0.512 21.76 43.776 49.408 96.512 27.392 52.48 49.92 96.512 49.92 97.536s-7.168 2.048-15.872 1.792h-16.128l-23.040-35.584c-67.072-103.68-84.736-130.56-86.016-130.56-1.024 0-15.36 37.376-31.744 83.2l-30.208 83.2h-16.128c-9.728 0-16.384-1.024-16.384-2.56s11.52-49.664 25.6-107.008l25.6-104.192-9.472-25.6-9.728-25.6-28.16-1.536c-15.616-0.768-31.488-2.56-35.84-3.584-10.24-2.816-32-13.568-32-16.128 0-3.84 19.2-20.48 29.44-25.6s28.16-9.472 50.176-12.032l11.776-1.536-3.584-10.752c-5.888-16.384-3.328-42.496 5.376-55.808 8.192-12.032 21.504-18.688 32.512-16.384 9.472 2.048 21.76 12.288 26.88 22.272l3.84 7.68 24.576-39.424c13.312-21.504 27.136-43.52 30.464-48.896l6.4-9.728 9.472 5.632c5.12 3.328 16.384 10.496 24.832 16.128z"></path>
<path d="M277.76 56.32c-36.608 57.856-52.48 85.248-52.48 90.112-0.256 3.328-1.792 10.24-3.584 15.36-2.56 6.912-2.56 9.728-0.512 9.728 7.68-0.256 129.792-19.968 131.072-21.248 2.304-2.048-16.896-40.704-29.952-60.416-5.888-8.96-16.896-22.784-24.064-30.464l-13.312-14.336-7.168 11.264z"></path>
<path d="M297.728 190.208l-51.968 10.496 1.792 25.856c0.768 14.080 2.304 28.16 3.072 31.488 2.048 7.424 110.848 78.592 113.152 73.984 8.704-15.872 10.752-91.904 3.584-129.28-4.352-22.784-4.608-23.552-11.264-23.296-3.584 0.256-29.952 5.12-58.368 10.752z"></path>
</g>

<!-- AXEMAN -->
<g id="axeman">
<path d="M0 256v256h512v-512h-512v256zM284.416 25.344l9.472 2.816-8.704 19.712c-4.608 10.752-9.984 20.48-11.776 21.248-1.792 1.024-12.032 2.56-22.528 3.328-65.792 4.608-134.144 55.296-159.744 118.528-8.448 20.48-14.336 50.688-14.336 72.704 0 11.264-1.024 17.92-2.816 17.92-1.536 0-12.544 4.608-24.32 9.984-11.776 5.632-22.016 9.472-22.528 8.448s-2.304-8.704-3.84-16.896c-11.776-64.256 15.36-140.288 69.888-195.072 32.512-32.512 64.768-51.968 103.936-62.464 15.616-4.096 24.832-4.864 48.64-4.096 16.128 0.512 33.536 2.304 38.656 3.84zM270.336 115.968c0 17.152 1.536 29.696 4.096 36.608l4.096 10.496-107.008 107.008-27.648 0.256c-15.104 0-32.512 1.024-38.656 2.304l-11.264 2.048 1.536-19.712c2.56-27.904 5.888-40.704 18.944-67.84 15.872-33.024 43.008-60.928 75.52-77.056 23.296-11.52 52.48-19.968 69.888-20.224l10.24-0.256 0.256 26.368zM347.392 164.352c7.424 7.424 13.568 14.592 13.568 15.872 0 3.584-10.496 14.336-14.080 14.336-1.536 0-8.96-6.4-16.64-14.080l-13.824-14.080 7.424-7.68c4.096-4.096 7.936-7.68 8.704-7.68s7.424 5.888 14.848 13.312zM317.44 195.84l21.76 21.76-119.040 119.040-22.272-22.528-22.528-22.272 58.88-58.88c32.256-32.256 59.392-58.88 60.16-58.88s11.264 9.728 23.040 21.76zM488.448 230.912c11.776 46.848 1.28 101.888-28.16 146.944-45.312 69.376-123.648 114.176-199.936 113.92-23.040-0.256-43.52-2.816-46.848-6.144-0.512-0.512 2.816-9.472 7.424-19.968 4.864-10.496 9.472-20.992 10.24-23.552 1.28-3.328 4.608-4.352 15.104-4.352 35.328 0 77.824-12.544 106.752-31.488 49.92-32.512 83.2-87.808 89.088-147.456l2.048-21.504 19.2-8.448c10.496-4.608 19.968-8.448 20.736-8.448 1.024-0.256 2.816 4.608 4.352 10.496zM362.24 239.616c8.192 2.56 22.016 4.096 38.144 4.096h25.088l-1.792 14.080c-2.816 23.552-8.448 41.984-19.712 64.768-8.448 17.664-14.848 26.112-32.512 43.52-33.024 33.024-69.888 49.664-114.432 51.712-16.384 0.768-17.664 0.512-16.64-4.352 0.512-2.816 1.28-20.48 1.536-39.424l0.768-34.304 51.968-51.968c28.672-28.672 52.736-52.224 53.504-52.224s7.168 1.792 14.080 4.096zM185.344 327.424l15.104 15.104-151.552 151.552h-28.416v-32l74.752-74.752c41.216-41.216 75.008-75.008 75.008-75.008s6.912 6.912 15.104 15.104z"></path>
</g>

</svg>
